<?xml version="1.0" encoding="iso-8859-1"?>
<!-- Generator: Adobe Illustrator 19.1.0, SVG Export Plug-In . SVG Version: 6.00 Build 0)  -->
<svg version="1.1" id="Capa_1" xmlns="http://www.w3.org/2000/svg" xmlns:xlink="http://www.w3.org/1999/xlink" x="0px" y="0px"
	 viewBox="0 0 60.985 60.985" style="enable-background:new 0 0 60.985 60.985;" xml:space="preserve">
<g>
	<g id="group-30svg">
		<path id="path-1_22_" style="fill:#E56A77;" d="M1.969,39.088c0,0-0.324-0.615-0.728-1.766c-0.404-1.147-0.894-2.844-1.107-4.955
			c-0.057-0.527-0.098-1.079-0.124-1.652c-0.027-0.638,0.009-1.148,0.011-1.755c0.023-0.597,0.084-1.255,0.139-1.905
			c0.089-0.637,0.164-1.295,0.311-1.95c0.249-1.322,0.652-2.66,1.145-3.987c0.521-1.316,1.123-2.632,1.871-3.864
			c0.742-1.234,1.568-2.421,2.5-3.488c0.903-1.091,1.92-2.051,2.94-2.923c1.017-0.855,2.119-1.62,3.139-2.231
			c1.054-0.649,2.087-1.148,3.071-1.552c1.957-0.822,3.68-1.211,4.882-1.401c1.204-0.191,1.899-0.205,1.899-0.205
			s-0.642,0.272-1.724,0.776c-1.081,0.504-2.583,1.283-4.259,2.356c-0.833,0.54-1.71,1.177-2.586,1.861
			c-0.222,0.182-0.447,0.366-0.674,0.552c-0.213,0.191-0.428,0.383-0.646,0.579c-0.442,0.388-0.874,0.806-1.31,1.231
			c-1.72,1.724-3.351,3.751-4.654,5.977c-0.685,1.094-1.226,2.267-1.756,3.423c-0.485,1.174-0.93,2.348-1.26,3.521
			c-0.194,0.579-0.293,1.171-0.462,1.738c-0.12,0.57-0.245,1.103-0.342,1.672c-0.082,0.568-0.161,1.12-0.238,1.655
			c-0.071,0.529-0.123,1.044-0.159,1.541c-0.142,1.986-0.098,3.677-0.026,4.868C1.894,38.395,1.969,39.088,1.969,39.088z"/>
		<path id="path-2_22_" style="fill:#E56A77;" d="M49.203,48.743c0,0-0.341,0.661-1.1,1.725c-0.382,0.529-0.86,1.167-1.477,1.843
			c-0.313,0.331-0.644,0.681-0.993,1.052c-0.378,0.354-0.784,0.74-1.218,1.103c-1.717,1.488-3.987,2.962-6.658,4.053
			c-1.342,0.521-2.761,1.007-4.252,1.308c-1.487,0.316-3.027,0.485-4.569,0.555c-1.56,0.047-3.069-0.04-4.575-0.272
			c-1.538-0.214-2.966-0.591-4.339-1.049c-1.37-0.447-2.646-1.012-3.798-1.643c-1.165-0.607-2.199-1.294-3.101-1.986
			c-0.919-0.669-1.686-1.376-2.335-2.02c-0.655-0.639-1.18-1.24-1.586-1.753c-0.422-0.496-0.705-0.927-0.905-1.211
			c-0.197-0.287-0.3-0.44-0.3-0.44s0.147,0.112,0.425,0.322c0.269,0.217,0.674,0.522,1.192,0.897
			c0.508,0.384,1.157,0.81,1.892,1.289c0.743,0.469,1.592,0.969,2.539,1.462c0.946,0.493,1.997,0.963,3.12,1.407
			c1.121,0.452,2.344,0.803,3.603,1.142c1.254,0.339,2.616,0.535,3.935,0.692c1.35,0.149,2.777,0.225,4.143,0.166
			c1.383-0.03,2.768-0.147,4.109-0.399c1.338-0.259,2.655-0.541,3.9-0.943c1.238-0.418,2.426-0.865,3.528-1.365
			c1.085-0.528,2.113-1.049,3.026-1.602c0.466-0.265,0.866-0.559,1.286-0.809c0.41-0.282,0.798-0.55,1.163-0.802
			c0.705-0.523,1.32-0.992,1.811-1.401C48.653,49.247,49.203,48.743,49.203,48.743z"/>
		<path id="path-3_22_" style="fill:#E56A77;" d="M32.521,5.123c0,0,0.182,0.003,0.523,0.01c0.339,0.008,0.838,0.026,1.478,0.097
			c1.272,0.131,3.097,0.448,5.194,1.21c1.044,0.382,2.164,0.858,3.287,1.485c1.126,0.618,2.287,1.34,3.386,2.225
			c0.556,0.439,1.096,0.897,1.644,1.398c0.499,0.444,1.07,1.028,1.547,1.566c0.987,1.111,1.907,2.317,2.723,3.592
			c0.793,1.288,1.496,2.636,2.04,4.022c0.286,0.689,0.525,1.387,0.724,2.076c0.216,0.718,0.385,1.401,0.533,2.096
			c0.594,2.763,0.637,5.418,0.386,7.627c-0.232,2.216-0.759,3.997-1.192,5.196c-0.44,1.203-0.784,1.846-0.784,1.846
			s0.095-0.725,0.201-1.973c0.051-0.625,0.089-1.382,0.113-2.241c0.017-0.854-0.003-1.838-0.061-2.871
			c-0.069-1.045-0.203-2.165-0.384-3.333c-0.201-1.168-0.49-2.378-0.84-3.607c-0.179-0.61-0.387-1.242-0.614-1.835
			c-0.24-0.623-0.491-1.238-0.761-1.847c-0.548-1.219-1.182-2.42-1.904-3.567c-0.703-1.159-1.501-2.261-2.364-3.282
			c-0.459-0.519-0.834-0.97-1.328-1.49c-0.441-0.468-0.911-0.931-1.381-1.362c-0.952-0.854-1.905-1.656-2.869-2.344
			C40.85,9.135,39.905,8.522,39,7.998c-0.913-0.508-1.773-0.948-2.552-1.315c-0.785-0.347-1.481-0.651-2.064-0.876
			c-0.582-0.214-1.047-0.404-1.372-0.506C32.692,5.185,32.521,5.123,32.521,5.123z"/>
		<path id="path-4_21_" style="fill:#E56A77;" d="M48.434,35.853l3.604,7.649c0.462,0.979,1.763,1.19,2.51,0.406l6.009-6.306
			c0.867-0.909,0.341-2.416-0.902-2.589l-9.613-1.342C48.829,33.501,47.913,34.746,48.434,35.853z"/>
		<path id="path-5_20_" style="fill:#E56A77;" d="M12.763,48.258l-7.878-2.289c-0.78-0.226-1.542,0.401-1.473,1.209L4.14,55.6
			c0.081,0.937,1.189,1.389,1.903,0.777l7.15-6.134C13.889,49.646,13.644,48.514,12.763,48.258z"/>
		<path id="path-6_19_" style="fill:#E56A77;" d="M22.371,10.904l4.716-6.252c0.488-0.648,0.174-1.584-0.606-1.807l-7.762-2.208
			c-0.904-0.257-1.72,0.617-1.402,1.501l3.045,8.461C20.673,11.463,21.818,11.636,22.371,10.904z"/>
		<path id="path-7_13_" style="fill:#53ECF4;" d="M42.001,37.14c0.88,7.506-2.781,10.897-10.34,10.897
			c-7.558,0-10.829-3.412-9.781-10.897c1.115-7.97,9.781-17.03,9.781-17.03S41.115,29.588,42.001,37.14z"/>
		<path id="path-8_10_" d="M27.661,46.537c-4.378,0-7.435-1.069-9.347-3.266c-1.87-2.151-2.499-5.206-1.92-9.339
			c1.169-8.353,9.816-17.474,10.183-17.859c0.279-0.292,0.664-0.459,1.068-0.463c0.414-0.006,0.793,0.155,1.078,0.44
			c0.401,0.403,9.832,9.939,10.768,17.915c0.465,3.974-0.261,7.069-2.157,9.202C35.345,45.403,32.09,46.537,27.661,46.537z
			 M27.687,19.328c-2.279,2.639-7.512,9.238-8.322,15.02c-0.444,3.178-0.037,5.517,1.213,6.954c1.29,1.483,3.673,2.235,7.083,2.235
			c3.535,0,6.036-0.796,7.432-2.364c1.302-1.465,1.78-3.772,1.418-6.858C35.869,28.838,30.128,22.011,27.687,19.328z"/>
		<path id="path-9_6_" d="M23.556,37.527c-0.065,0-0.13-0.005-0.196-0.013c-0.821-0.108-1.4-0.861-1.293-1.682
			c0.658-5.027,4.068-8.969,4.213-9.134c0.544-0.622,1.493-0.687,2.116-0.139c0.623,0.545,0.686,1.491,0.142,2.115
			c-0.052,0.059-2.961,3.457-3.496,7.547C24.943,36.976,24.299,37.527,23.556,37.527z"/>
	</g>
</g>
<g>
</g>
<g>
</g>
<g>
</g>
<g>
</g>
<g>
</g>
<g>
</g>
<g>
</g>
<g>
</g>
<g>
</g>
<g>
</g>
<g>
</g>
<g>
</g>
<g>
</g>
<g>
</g>
<g>
</g>
</svg>
