<?xml version="1.0" encoding="iso-8859-1"?>
<!-- Generator: Adobe Illustrator 19.1.0, SVG Export Plug-In . SVG Version: 6.00 Build 0)  -->
<svg version="1.1" id="Capa_1" xmlns="http://www.w3.org/2000/svg" xmlns:xlink="http://www.w3.org/1999/xlink" x="0px" y="0px"
	 viewBox="0 0 63.501 63.501" style="enable-background:new 0 0 63.501 63.501;" xml:space="preserve">
<g>
	<g id="group-12svg">
		<path id="path-1_2_" style="fill:#53ECF4;" d="M56.184,40.089c1.891,16.128-5.976,23.412-22.214,23.412
			S10.704,56.17,12.954,40.089C15.35,22.967,33.97,3.501,33.97,3.501S54.281,23.865,56.184,40.089z"/>
		<path id="path-2_2_" style="fill:#FFFFFF;" d="M38.948,46.179c1.793-2.541,3.138-4.74,4.144-6.628
			c3.866-7.253,2.732-9.93,2.732-9.93s4.232,11.374,4.232,15.904c0,2.407-0.284,3.997-1.062,6.065
			c-0.732,1.954-3.021,3.382-5.736,3.382c-3.304,0-5.984-2.115-5.984-4.723C37.274,49.139,38.19,47.275,38.948,46.179z"/>
		<path id="path-3_2_" d="M29.97,63.001c-8.877,0-15.02-2.102-18.781-6.424c-3.673-4.223-4.89-10.338-3.72-18.696
			C9.903,20.479,28.112,1.273,28.886,0.464c0.279-0.292,0.664-0.459,1.068-0.463c0.385-0.011,0.792,0.155,1.078,0.441
			c0.844,0.847,20.7,20.922,22.641,37.473c0.942,8.027-0.474,14.225-4.208,18.423C45.532,60.759,38.973,63.001,29.97,63.001z
			 M29.995,3.694c-3.936,4.392-17.581,20.49-19.556,34.603c-1.041,7.447-0.056,12.782,3.014,16.31
			c3.156,3.63,8.559,5.394,16.517,5.394c8.109,0,13.914-1.903,17.253-5.657c3.141-3.531,4.308-8.94,3.471-16.08
			C49.124,24.874,34.187,8.153,29.995,3.694z"/>
		<path id="path-4_2_" d="M39.258,54.472c-4.127,0-7.484-2.792-7.484-6.223c0-1.674,1.269-3.952,1.94-4.923
			c1.634-2.316,2.995-4.492,4.055-6.48c3.238-6.075,2.688-8.549,2.647-8.706c-0.281-0.763,0.097-1.612,0.854-1.913
			s1.617,0.058,1.935,0.808c0.006,0.016,0.016,0.039,0.024,0.063l0,0l0,0c0.004,0.01,0.008,0.021,0.012,0.031
			c0.001,0.001,0.001,0.002,0.002,0.004c0.441,1.194,4.313,11.798,4.313,16.393c0,2.561-0.314,4.348-1.158,6.592
			C45.423,52.721,42.553,54.472,39.258,54.472z M42.387,33.933c-0.458,1.246-1.095,2.681-1.971,4.324
			c-1.118,2.097-2.545,4.381-4.242,6.786c-0.729,1.055-1.4,2.588-1.4,3.206c0,1.747,2.054,3.223,4.484,3.223
			c2.019,0,3.8-0.991,4.331-2.409c0.723-1.921,0.967-3.318,0.967-5.537C44.556,41.469,43.517,37.541,42.387,33.933z"/>
		<path id="path-5_2_" d="M15.9,44.671c-0.065,0-0.131-0.004-0.197-0.013c-0.821-0.108-1.4-0.861-1.292-1.682
			c2.21-16.867,13.685-30.133,14.172-30.69c0.546-0.623,1.492-0.685,2.116-0.14c0.623,0.545,0.686,1.493,0.141,2.116
			c-0.113,0.13-11.365,13.16-13.455,29.103C17.286,44.121,16.642,44.671,15.9,44.671z"/>
	</g>
</g>
<g>
</g>
<g>
</g>
<g>
</g>
<g>
</g>
<g>
</g>
<g>
</g>
<g>
</g>
<g>
</g>
<g>
</g>
<g>
</g>
<g>
</g>
<g>
</g>
<g>
</g>
<g>
</g>
<g>
</g>
</svg>
